<svg width="88" height="98" viewBox="0 0 88 98" fill="none" xmlns="http://www.w3.org/2000/svg">
<path d="M0 35.7455C0 16.0038 16.0038 0 35.7455 0H51.4776C71.6484 0 88 16.3516 88 36.5224V67.2032C88 77.3671 77.964 84.4874 68.3707 81.1298V81.1298C62.2164 78.9757 55.3779 81.1167 51.5506 86.3957L43.5 97.5L33.1003 84.8943C29.4593 80.481 23.3982 78.9007 18.0659 80.9744V80.9744C9.37356 84.3547 0 77.9426 0 68.6161V35.7455Z" fill="#43EB34" fill-opacity="0.08"/>
<path d="M58.1586 48.2613C54.8111 51.5925 50.0173 52.6163 45.8086 51.3L38.1548 58.9375C37.6023 59.5063 36.5136 59.8475 35.7336 59.7338L32.1911 59.2463C31.0211 59.0838 29.9323 57.9788 29.7536 56.8088L29.2661 53.2663C29.1523 52.4863 29.5261 51.3975 30.0623 50.845L37.6998 43.2075C36.3998 38.9825 37.4073 34.1888 40.7548 30.8575C45.5486 26.0638 53.3323 26.0638 58.1423 30.8575C62.9523 35.6513 62.9523 43.4675 58.1586 48.2613Z" stroke="#50BA47" stroke-width="1.5" stroke-miterlimit="10" stroke-linecap="round" stroke-linejoin="round"/>
<path opacity="0.4" d="M37.1963 52.4213L40.9338 56.1588" stroke="#50BA47" stroke-width="1.5" stroke-miterlimit="10" stroke-linecap="round" stroke-linejoin="round"/>
<path opacity="0.4" d="M49.5625 41.875C50.9087 41.875 52 40.7837 52 39.4375C52 38.0913 50.9087 37 49.5625 37C48.2163 37 47.125 38.0913 47.125 39.4375C47.125 40.7837 48.2163 41.875 49.5625 41.875Z" stroke="#50BA47" stroke-width="1.5" stroke-linecap="round" stroke-linejoin="round"/>
</svg>
