<svg width="88" height="98" viewBox="0 0 88 98" fill="none" xmlns="http://www.w3.org/2000/svg">
<path d="M0 35.7455C0 16.0038 16.0038 0 35.7455 0H51.4776C71.6484 0 88 16.3516 88 36.5224V67.2032C88 77.3671 77.964 84.4874 68.3707 81.1298V81.1298C62.2164 78.9757 55.3779 81.1167 51.5506 86.3957L43.5 97.5L33.1003 84.8943C29.4593 80.481 23.3982 78.9007 18.0659 80.9744V80.9744C9.37356 84.3547 0 77.9426 0 68.6161V35.7455Z" fill="#EB4334" fill-opacity="0.08"/>
<rect x="35.9629" y="40.3411" width="19.7015" height="3.75267" rx="1.87633" fill="#EB4334"/>
<rect opacity="0.4" x="43.8433" y="52.5373" width="19.7015" height="3.9403" rx="1.97015" transform="rotate(-90 43.8433 52.5373)" fill="#EB4334"/>
</svg>
